<svg xmlns="http://www.w3.org/2000/svg" xmlns:xlink="http://www.w3.org/1999/xlink" zoomAndPan="magnify" preserveAspectRatio="xMidYMid meet" version="1.0" viewBox="101.28 37.99 171.64 84.72"><defs><g/><clipPath id="cc31244225"><path d="M 178 48 L 264.625 48 L 264.625 53 L 178 53 Z M 178 48 " clip-rule="nonzero"/></clipPath><clipPath id="0280364491"><path d="M 179.308594 48.238281 C 211.441406 48.421875 218.953125 49.09375 227.144531 49.183594 C 236.054688 49.230469 248.339844 48.464844 254.953125 48.554688 C 258.691406 48.601562 262.515625 48.015625 263.683594 48.960938 C 264.179688 49.363281 264.269531 50.21875 264.136719 50.671875 C 264 51.074219 263.503906 51.480469 263.101562 51.570312 C 262.695312 51.660156 262.066406 51.480469 261.75 51.210938 C 261.480469 50.894531 261.253906 50.265625 261.300781 49.859375 C 261.390625 49.453125 261.75 48.914062 262.15625 48.78125 C 262.605469 48.601562 263.550781 48.824219 263.910156 49.183594 C 264.179688 49.453125 264.316406 50.128906 264.179688 50.535156 C 264.046875 50.941406 263.640625 51.300781 262.785156 51.613281 C 258.375 53.054688 230.160156 51.390625 219.269531 51.074219 C 212.746094 50.894531 209.191406 50.445312 203.519531 50.355469 C 196.949219 50.265625 186.464844 50.851562 182.28125 50.671875 C 180.480469 50.625 179.085938 50.804688 178.5 50.308594 C 178.140625 49.996094 178.050781 49.320312 178.183594 49.003906 C 178.320312 48.644531 179.308594 48.238281 179.308594 48.238281 " clip-rule="nonzero"/></clipPath><clipPath id="7fa7c3a7e5"><path d="M 102.734375 105 L 173.921875 105 L 173.921875 108.765625 L 102.734375 108.765625 Z M 102.734375 105 " clip-rule="nonzero"/></clipPath><clipPath id="7e90c15de4"><path d="M 172.695312 108.765625 C 105.058594 108.226562 104.429688 108.316406 103.84375 108.046875 C 103.53125 107.910156 103.304688 107.773438 103.171875 107.460938 C 103.035156 107.101562 103.125 106.15625 103.394531 105.839844 C 103.621094 105.523438 104.25 105.34375 104.609375 105.433594 C 105.015625 105.480469 105.464844 105.886719 105.644531 106.246094 C 105.78125 106.558594 105.734375 107.191406 105.554688 107.503906 C 105.328125 107.820312 104.789062 108.136719 104.429688 108.179688 C 104.070312 108.179688 103.484375 107.910156 103.261719 107.59375 C 103.035156 107.28125 102.898438 106.695312 103.078125 106.335938 C 103.261719 105.929688 103.621094 105.660156 104.476562 105.390625 C 108.613281 104.21875 132.105469 106.378906 144.253906 106.515625 C 154.515625 106.648438 169.769531 105.796875 172.695312 106.46875 C 173.234375 106.605469 173.460938 106.738281 173.640625 106.964844 C 173.820312 107.144531 173.910156 107.503906 173.820312 107.730469 C 173.730469 108.089844 172.695312 108.765625 172.695312 108.765625 " clip-rule="nonzero"/></clipPath></defs><g fill="#ff4930" fill-opacity="1"><g transform="translate(102.611495, 97.922382)"><g><path d="M 3.113281 -8.25 C 3.113281 -5.433594 3.011719 -4.644531 2.46875 -3.804688 C 1.679688 -2.519531 1.628906 -2.421875 1.628906 -1.730469 C 1.628906 -0.445312 2.371094 0.296875 3.65625 0.296875 C 4.101562 0.296875 4.742188 0.246094 5.582031 0.199219 C 6.964844 0.0976562 9.089844 0 11.015625 0 C 13.238281 0 15.261719 0.0976562 16.597656 0.246094 C 17.289062 0.296875 17.929688 0.347656 18.277344 0.347656 C 19.460938 0.347656 20.203125 -0.445312 20.203125 -1.679688 C 20.203125 -2.371094 20.152344 -2.46875 19.363281 -3.804688 C 18.871094 -4.59375 18.722656 -5.433594 18.722656 -7.3125 C 18.722656 -8.445312 19.117188 -8.84375 20.152344 -8.84375 C 20.5 -8.84375 20.894531 -8.84375 21.339844 -8.792969 C 22.277344 -8.742188 22.96875 -8.742188 23.414062 -8.742188 C 33.046875 -8.742188 39.171875 -14.671875 39.171875 -24.007812 C 39.171875 -28.996094 36.996094 -33.492188 33.492188 -35.8125 C 30.378906 -37.886719 26.378906 -38.824219 20.796875 -38.824219 C 19.757812 -38.824219 18.179688 -38.777344 16.203125 -38.675781 C 12.941406 -38.527344 11.757812 -38.480469 10.324219 -38.480469 C 8.742188 -38.480469 7.902344 -38.527344 5.976562 -38.726562 C 5.136719 -38.777344 4.347656 -38.824219 3.804688 -38.824219 C 2.371094 -38.824219 1.628906 -38.085938 1.628906 -36.75 C 1.628906 -36.058594 1.679688 -35.960938 2.46875 -34.625 C 3.011719 -33.789062 3.113281 -32.996094 3.113281 -30.179688 Z M 17.535156 -26.082031 C 17.535156 -27.660156 17.832031 -27.957031 19.609375 -27.957031 C 23.019531 -27.957031 24.597656 -26.675781 24.597656 -23.859375 C 24.597656 -20.894531 22.921875 -19.414062 19.511719 -19.414062 C 18.03125 -19.414062 17.535156 -19.757812 17.535156 -20.84375 Z M 17.535156 -26.082031 "/></g></g></g><g fill="#ff4930" fill-opacity="1"><g transform="translate(142.077689, 97.922382)"><g><path d="M 3.0625 -8.25 C 3.0625 -5.433594 2.964844 -4.644531 2.421875 -3.804688 C 1.628906 -2.519531 1.582031 -2.421875 1.582031 -1.730469 C 1.582031 -0.492188 2.371094 0.296875 3.605469 0.296875 C 4.050781 0.296875 4.742188 0.246094 5.53125 0.199219 C 7.0625 0.0507812 8.742188 0 11.015625 0 C 13.4375 0 15.164062 0.0507812 16.546875 0.246094 C 17.238281 0.296875 17.882812 0.347656 18.226562 0.347656 C 19.363281 0.347656 20.152344 -0.445312 20.152344 -1.679688 C 20.152344 -2.371094 20.105469 -2.519531 19.3125 -3.804688 C 18.769531 -4.691406 18.671875 -5.335938 18.671875 -8.25 L 18.671875 -30.179688 C 18.671875 -33.09375 18.769531 -33.789062 19.3125 -34.625 C 20.105469 -35.910156 20.152344 -36.058594 20.152344 -36.75 C 20.152344 -38.035156 19.363281 -38.824219 18.179688 -38.824219 C 17.683594 -38.824219 16.941406 -38.777344 16.203125 -38.726562 C 14.421875 -38.527344 13.335938 -38.480469 10.71875 -38.480469 C 8.546875 -38.480469 7.953125 -38.527344 5.925781 -38.726562 C 5.085938 -38.777344 4.296875 -38.824219 3.753906 -38.824219 C 2.371094 -38.824219 1.582031 -38.085938 1.582031 -36.75 C 1.582031 -36.011719 1.582031 -35.960938 2.421875 -34.625 C 2.964844 -33.789062 3.0625 -32.996094 3.0625 -30.179688 Z M 3.0625 -8.25 "/></g></g></g><g fill="#ff4930" fill-opacity="1"><g transform="translate(163.860659, 97.922382)"><g><path d="M 8.003906 -38.824219 C 5.730469 -38.824219 5.1875 -38.28125 4.691406 -35.320312 C 4.496094 -33.984375 4 -32.503906 2.320312 -27.761719 C 2.125 -27.167969 1.976562 -26.527344 1.976562 -26.179688 C 1.976562 -25.191406 2.816406 -24.453125 4 -24.453125 C 4.792969 -24.453125 5.085938 -24.597656 5.976562 -25.390625 C 6.765625 -26.128906 7.210938 -26.277344 8.445312 -26.277344 C 9.878906 -26.277344 10.570312 -25.835938 10.570312 -24.847656 C 10.570312 -23.957031 10.273438 -23.214844 9.039062 -21.191406 C 5.484375 -15.261719 0.789062 -4.050781 0.789062 -1.480469 C 0.789062 -0.394531 1.53125 0.296875 2.71875 0.296875 C 3.261719 0.296875 4.148438 0.246094 5.1875 0.199219 C 6.570312 0.0976562 11.261719 0 14.078125 0 C 16.894531 0 21.09375 0.0976562 22.96875 0.246094 C 24.203125 0.296875 25.289062 0.347656 25.933594 0.347656 C 27.5625 0.347656 28.15625 -0.296875 28.550781 -2.519531 C 28.945312 -4.445312 30.527344 -9.386719 31.464844 -11.65625 C 31.710938 -12.347656 31.859375 -12.992188 31.859375 -13.4375 C 31.859375 -14.324219 31.121094 -14.917969 30.03125 -14.917969 C 29.242188 -14.917969 28.847656 -14.769531 27.910156 -14.078125 C 26.773438 -13.238281 26.128906 -13.039062 24.597656 -13.039062 C 23.167969 -13.039062 22.328125 -13.585938 22.328125 -14.570312 C 22.328125 -15.511719 22.574219 -16.152344 24.203125 -19.414062 C 28.253906 -27.660156 30.824219 -34.578125 30.824219 -37.195312 C 30.824219 -38.234375 30.132812 -38.824219 28.945312 -38.824219 C 28.402344 -38.824219 27.515625 -38.777344 26.574219 -38.726562 C 24.746094 -38.527344 22.375 -38.480469 19.3125 -38.480469 C 15.558594 -38.480469 12.054688 -38.578125 10.175781 -38.726562 C 9.136719 -38.777344 8.347656 -38.824219 8.003906 -38.824219 Z M 8.003906 -38.824219 "/></g></g></g><g fill="#ff4930" fill-opacity="1"><g transform="translate(196.312838, 97.922382)"><g><path d="M 8.003906 -38.824219 C 5.730469 -38.824219 5.1875 -38.28125 4.691406 -35.320312 C 4.496094 -33.984375 4 -32.503906 2.320312 -27.761719 C 2.125 -27.167969 1.976562 -26.527344 1.976562 -26.179688 C 1.976562 -25.191406 2.816406 -24.453125 4 -24.453125 C 4.792969 -24.453125 5.085938 -24.597656 5.976562 -25.390625 C 6.765625 -26.128906 7.210938 -26.277344 8.445312 -26.277344 C 9.878906 -26.277344 10.570312 -25.835938 10.570312 -24.847656 C 10.570312 -23.957031 10.273438 -23.214844 9.039062 -21.191406 C 5.484375 -15.261719 0.789062 -4.050781 0.789062 -1.480469 C 0.789062 -0.394531 1.53125 0.296875 2.71875 0.296875 C 3.261719 0.296875 4.148438 0.246094 5.1875 0.199219 C 6.570312 0.0976562 11.261719 0 14.078125 0 C 16.894531 0 21.09375 0.0976562 22.96875 0.246094 C 24.203125 0.296875 25.289062 0.347656 25.933594 0.347656 C 27.5625 0.347656 28.15625 -0.296875 28.550781 -2.519531 C 28.945312 -4.445312 30.527344 -9.386719 31.464844 -11.65625 C 31.710938 -12.347656 31.859375 -12.992188 31.859375 -13.4375 C 31.859375 -14.324219 31.121094 -14.917969 30.03125 -14.917969 C 29.242188 -14.917969 28.847656 -14.769531 27.910156 -14.078125 C 26.773438 -13.238281 26.128906 -13.039062 24.597656 -13.039062 C 23.167969 -13.039062 22.328125 -13.585938 22.328125 -14.570312 C 22.328125 -15.511719 22.574219 -16.152344 24.203125 -19.414062 C 28.253906 -27.660156 30.824219 -34.578125 30.824219 -37.195312 C 30.824219 -38.234375 30.132812 -38.824219 28.945312 -38.824219 C 28.402344 -38.824219 27.515625 -38.777344 26.574219 -38.726562 C 24.746094 -38.527344 22.375 -38.480469 19.3125 -38.480469 C 15.558594 -38.480469 12.054688 -38.578125 10.175781 -38.726562 C 9.136719 -38.777344 8.347656 -38.824219 8.003906 -38.824219 Z M 8.003906 -38.824219 "/></g></g></g><g fill="#ff4930" fill-opacity="1"><g transform="translate(228.765017, 97.922382)"><g><path d="M 22.921875 -7.359375 C 25.390625 -7.359375 26.277344 -6.816406 26.277344 -5.1875 C 26.277344 -4.496094 26.179688 -4.25 25.539062 -3.410156 C 25.144531 -2.863281 24.996094 -2.421875 24.996094 -1.925781 C 24.996094 -0.59375 25.882812 0.296875 27.117188 0.296875 C 27.515625 0.296875 28.15625 0.246094 28.898438 0.199219 C 30.082031 0.0976562 32.402344 0 34.082031 0 C 35.714844 0 38.726562 0.0976562 40.0625 0.199219 C 41 0.246094 41.839844 0.296875 42.285156 0.296875 C 43.46875 0.296875 44.160156 -0.445312 44.160156 -1.730469 C 44.160156 -2.371094 44.011719 -2.71875 43.417969 -3.554688 C 42.332031 -5.136719 42.234375 -5.433594 41.445312 -9.136719 C 40.308594 -14.421875 36.898438 -25.488281 34.675781 -31.121094 C 32.207031 -37.492188 31.316406 -38.824219 29.6875 -38.824219 C 29.292969 -38.824219 28.699219 -38.777344 28.007812 -38.726562 C 26.773438 -38.578125 24.796875 -38.480469 22.671875 -38.480469 C 19.957031 -38.480469 17.140625 -38.578125 16.101562 -38.726562 C 15.558594 -38.777344 14.96875 -38.824219 14.71875 -38.824219 C 13.1875 -38.824219 12.398438 -37.789062 10.421875 -33.34375 C 7.753906 -27.464844 4.347656 -17.042969 2.617188 -9.632812 C 2.023438 -7.0625 1.730469 -5.878906 1.628906 -5.679688 C 1.285156 -4.691406 1.285156 -4.644531 0.347656 -3.605469 C -0.199219 -2.914062 -0.445312 -2.421875 -0.445312 -1.777344 C -0.445312 -0.542969 0.347656 0.296875 1.582031 0.296875 C 1.925781 0.296875 2.570312 0.246094 3.308594 0.199219 C 4.394531 0.0976562 6.964844 0 8.546875 0 C 9.976562 0 11.359375 0.0507812 12.449219 0.199219 C 13.039062 0.246094 13.585938 0.296875 13.929688 0.296875 C 14.867188 0.296875 15.609375 -0.59375 15.609375 -1.777344 C 15.609375 -2.570312 15.511719 -2.863281 14.917969 -3.65625 C 14.523438 -4.25 14.375 -4.644531 14.375 -5.1875 C 14.375 -6.667969 15.261719 -7.359375 17.289062 -7.359375 Z M 19.164062 -17.4375 C 17.535156 -17.4375 16.941406 -17.78125 16.941406 -18.820312 C 16.941406 -19.90625 17.734375 -22.625 18.871094 -25.4375 C 19.660156 -27.367188 20.003906 -27.859375 20.597656 -27.859375 C 21.140625 -27.859375 21.289062 -27.660156 22.328125 -24.847656 C 23.117188 -22.722656 23.808594 -19.90625 23.808594 -18.871094 C 23.808594 -17.882812 23.167969 -17.4375 21.832031 -17.4375 Z M 19.164062 -17.4375 "/></g></g></g><path stroke-linecap="butt" transform="matrix(0.449172, -0.0272858, 0.0272858, 0.449172, 151.172689, 91.877452)" fill="none" stroke-linejoin="miter" d="M 138.774228 24.826347 C 137.149702 26.945284 134.686814 27.117444 131.385566 25.342827 C 128.075654 23.567683 124.581559 22.677097 120.894091 22.679205 C 117.207149 22.672649 114.610771 23.610693 113.097871 25.466818 C 111.584445 27.331607 114.579154 30.000742 122.081997 33.474221 C 129.576176 36.947175 133.291869 41.634225 133.229075 47.535373 C 133.157617 53.435994 128.217554 58.310352 118.408359 62.167112 C 108.591025 66.01468 101.719486 67.467016 97.776938 66.514401 C 93.834916 65.553121 91.952028 63.908147 92.129326 61.562151 C 92.306098 59.224818 92.725357 57.763176 93.404434 57.178276 C 94.074845 56.592849 95.645766 56.644795 98.108533 57.333586 C 100.579438 58.031569 104.835651 57.829203 110.88531 56.73568 C 116.934969 55.642156 120.950071 54.111963 122.930615 52.145101 C 124.911685 50.169575 124.664622 48.223931 122.206753 46.309222 C 119.749411 44.385848 115.554496 41.861219 109.631198 38.727195 C 103.699236 35.592646 100.977258 31.583416 101.474982 26.682703 C 101.97218 21.790655 106.490878 18.412598 115.030552 16.557196 C 123.561035 14.709932 130.059998 15.096028 134.518779 17.714955 C 138.968368 20.34202 140.39009 22.706884 138.774228 24.826347 Z M 145.055938 35.374216 L 150.003981 35.379112 C 151.783258 36.295977 152.66486 36.95829 152.666115 37.367105 C 152.058421 38.208542 149.980379 38.917177 146.431464 39.501674 C 142.882548 40.086172 140.77479 43.001927 140.116852 48.249467 L 140.116975 49.249578 C 140.114748 50.145188 140.426026 51.033753 141.051335 51.906608 C 141.676117 52.788128 142.788544 53.229656 144.389144 53.222529 L 144.73678 53.226253 C 146.730443 53.190824 150.559661 51.571071 156.233098 48.367519 L 156.531541 49.03789 L 156.527249 49.681175 C 151.610102 54.035131 147.242547 56.213549 143.416445 56.207235 C 137.021537 55.253489 133.823615 52.493741 133.822681 47.927991 C 134.91324 43.289402 136.78422 39.976615 139.443234 38.007485 C 141.993251 36.257844 143.873344 35.37195 145.055938 35.374216 Z M 164.986853 17.791697 C 168.494874 16.735101 170.248198 17.363403 170.247876 19.659275 L 170.254111 20.129268 C 169.274654 26.374773 167.724509 33.568321 165.59396 41.726716 L 165.828956 41.723598 C 169.933009 36.868027 173.566706 34.601548 176.729522 34.932824 C 179.901003 35.264626 181.915358 37.465469 182.773641 41.518023 C 183.204847 42.866094 183.486689 43.952892 183.619695 44.769752 C 183.62755 44.926767 183.553497 45.000537 183.423002 45.001307 L 183.621398 47.604933 C 183.62808 48.640229 183.343244 52.040673 182.77661 57.789462 L 182.976421 57.792903 C 183.041609 59.153526 184.389073 59.304953 187.036143 58.248236 C 189.675075 57.182328 189.938616 57.711435 187.827294 59.82689 C 185.707307 61.941819 183.738706 62.996268 181.929631 62.999428 C 180.11189 63.002061 178.512464 62.130907 177.130826 60.394631 C 175.530346 57.679743 174.731461 55.083122 174.727087 52.578248 C 174.725182 51.177987 175.157963 46.916874 176.016763 39.794384 L 176.017087 39.359576 C 173.850294 40.097606 171.573412 41.359438 169.186443 43.145073 C 166.790808 44.930181 164.784919 47.886911 163.151446 52.014209 C 161.526638 56.142034 160.26651 58.561397 159.361871 59.280437 L 158.48359 59.279263 C 155.677764 59.656701 154.810332 57.186365 155.880768 51.876918 C 158.142703 42.987297 160.071781 35.425423 161.666424 29.217288 C 163.252928 22.999963 164.362275 19.197384 164.986853 17.791697 Z M 204.632759 35.714719 C 206.342921 35.192454 207.257196 35.03058 207.349591 35.227517 C 207.450651 35.42498 207.497335 35.801768 207.498307 36.358406 C 207.499279 36.915045 206.111003 37.578616 203.341617 38.358309 C 204.567941 41.076558 205.182885 42.835832 205.185922 43.644796 C 205.18896 44.45376 205.184952 44.949221 205.182563 45.131703 C 205.188312 45.323377 204.823956 46.59703 204.105769 48.971046 C 203.379444 51.33587 202.266978 53.042389 200.769423 54.073273 C 199.262677 55.112295 197.910638 55.751977 196.712254 56.009648 C 195.514395 56.258655 194.75005 56.386154 194.419743 56.383482 C 194.08891 56.389475 193.445625 56.385184 192.488837 56.387938 C 191.532048 56.390692 190.694539 55.861505 189.966591 54.81718 C 189.247309 53.773382 188.811366 52.503292 188.651151 50.989055 C 188.4996 49.475345 188.70601 47.365924 189.278518 44.669983 C 189.860217 41.965904 190.81834 39.936933 192.161026 38.592262 C 193.512376 37.248116 194.214044 36.577623 194.275223 36.572643 C 194.32721 36.575801 194.82846 36.484498 195.77792 36.316065 C 196.727907 36.138966 198.00739 36.121029 199.624509 36.271443 C 201.242155 36.413193 202.914459 36.227794 204.632759 35.714719 Z M 194.3024 48.723384 C 194.302685 50.436623 194.29807 51.514716 194.297747 51.949524 C 194.296897 52.392997 194.624532 52.725976 195.26227 52.964737 C 195.909198 53.19536 196.65832 53.03215 197.517773 52.484296 C 198.377753 51.927778 199.079988 50.961636 199.623953 49.594535 C 200.176056 48.236624 200.449556 47.027024 200.444454 45.965734 C 200.44749 44.913635 200.447044 44.348332 200.443643 44.261159 C 200.449432 44.165849 200.409105 43.398102 200.341042 41.941643 C 200.272453 40.493848 199.902629 39.56694 199.213187 39.177196 L 198.569376 39.18157 C 197.282281 39.181652 196.407603 39.693794 195.935627 40.734799 C 195.472842 41.767667 195.08067 42.926575 194.767774 44.212051 C 194.454878 45.497527 194.302642 47.00148 194.3024 48.723384 Z M 222.773926 35.712276 C 224.483561 35.198675 225.397836 35.0368 225.490232 35.233737 C 225.591818 35.422536 225.638502 35.799324 225.639474 36.355963 C 225.640446 36.912601 224.25217 37.576172 221.482257 38.36453 C 222.709108 41.074114 223.324052 42.833388 223.327089 43.642352 C 223.330126 44.451317 223.326118 44.946777 223.323203 45.137924 C 223.329479 45.320933 222.965122 46.594586 222.246935 48.968602 C 221.520084 51.342091 220.408144 53.039945 218.910589 54.070829 C 217.403843 55.109851 216.051805 55.749534 214.85342 56.007205 C 213.655562 56.256211 212.891216 56.383711 212.560383 56.389703 C 212.230076 56.387031 211.586792 56.38274 210.630003 56.385494 C 209.673215 56.388248 208.835179 55.867726 208.107232 54.823401 C 207.387949 53.779603 206.952532 52.500849 206.792317 50.986612 C 206.640767 49.472901 206.84665 47.372144 207.419685 44.667539 C 208.001384 41.96346 208.958981 39.943154 210.301666 38.598482 C 211.653542 37.245673 212.355211 36.575179 212.407199 36.578337 C 212.468377 36.573357 212.969101 36.490719 213.919087 36.313621 C 214.869073 36.136522 216.148557 36.118585 217.765676 36.268999 C 219.383321 36.410749 221.055626 36.22535 222.773926 35.712276 Z M 212.443567 48.72094 C 212.443852 50.434179 212.439237 51.512272 212.438387 51.955745 C 212.438064 52.390553 212.765172 52.732196 213.403436 52.962293 C 214.050365 53.192916 214.79896 53.03837 215.65894 52.481852 C 216.51892 51.925335 217.221155 50.959192 217.764593 49.600756 C 218.308558 48.233654 218.582058 47.024054 218.585094 45.971955 C 218.58813 44.919856 218.58821 44.345888 218.584809 44.258716 C 218.590073 44.17207 218.550272 43.395658 218.481683 41.947863 C 218.41362 40.491404 218.043269 39.573161 217.353827 39.183417 L 216.710543 39.179126 C 215.423447 39.179208 214.548244 39.700015 214.076794 40.732356 C 213.614009 41.765223 213.221836 42.924131 212.908941 44.209607 C 212.595519 45.503748 212.443809 46.999037 212.443567 48.72094 Z M 235.528501 17.441616 C 239.606484 18.741624 241.646468 19.804775 241.639788 20.630542 C 242.074596 20.630865 242.512644 21.866297 242.962071 24.346027 C 242.955471 24.597827 242.59739 26.054489 241.87969 28.706824 C 241.153324 31.358632 239.737762 35.620919 237.615672 41.492634 C 235.502248 47.364874 233.309546 53.110547 231.046232 58.730179 C 230.171354 60.677241 229.693953 62.952828 229.614557 65.548275 C 229.964664 66.656613 230.783265 67.21074 232.07036 67.210658 L 232.809481 67.212075 C 233.583261 67.215597 234.447128 67.02457 235.3827 66.655272 L 235.380311 66.837755 C 235.478052 68.235141 234.682369 69.021676 232.993787 69.188693 C 231.305206 69.35571 229.689707 68.892318 228.155953 67.799043 C 226.613535 66.705242 225.840766 65.110312 225.8387 62.996923 C 225.357206 60.758748 225.25829 58.378579 225.549564 55.874272 C 225.840838 53.369964 228.672691 43.401805 234.035406 25.986596 C 234.639537 24.34486 235.1337 22.365974 235.527086 20.0418 C 235.273262 19.495891 235.147868 18.696887 235.142239 17.644262 Z M 235.528501 17.441616 " stroke="#806600" stroke-width="4.495297" stroke-opacity="1" stroke-miterlimit="4"/><g fill="#ffde59" fill-opacity="1"><g transform="translate(194.7068, 117.635152)"><g><path d="M 19.484375 -18.390625 C 18.816406 -17.398438 17.710938 -17.253906 16.171875 -17.953125 C 14.640625 -18.660156 13.046875 -18.960938 11.390625 -18.859375 C 9.734375 -18.765625 8.585938 -18.273438 7.953125 -17.390625 C 7.328125 -16.515625 8.75 -15.398438 12.21875 -14.046875 C 15.6875 -12.691406 17.484375 -10.6875 17.609375 -8.03125 C 17.734375 -5.382812 15.644531 -3.0625 11.34375 -1.0625 C 7.039062 0.9375 3.992188 1.773438 2.203125 1.453125 C 0.410156 1.128906 -0.476562 0.441406 -0.46875 -0.609375 C -0.457031 -1.671875 -0.304688 -2.34375 -0.015625 -2.625 C 0.265625 -2.90625 0.96875 -2.921875 2.09375 -2.671875 C 3.226562 -2.429688 5.140625 -2.640625 7.828125 -3.296875 C 10.515625 -3.960938 12.273438 -4.757812 13.109375 -5.6875 C 13.941406 -6.625 13.78125 -7.488281 12.625 -8.28125 C 11.46875 -9.082031 9.515625 -10.101562 6.765625 -11.34375 C 4.015625 -12.582031 2.6875 -14.3125 2.78125 -16.53125 C 2.875 -18.75 4.804688 -20.390625 8.578125 -21.453125 C 12.359375 -22.523438 15.285156 -22.53125 17.359375 -21.46875 C 19.441406 -20.414062 20.148438 -19.390625 19.484375 -18.390625 Z M 19.484375 -18.390625 "/></g></g></g><g fill="#ffde59" fill-opacity="1"><g transform="translate(212.764185, 116.538222)"><g><path d="M 4.53125 -12.75 L 6.75 -12.875 C 7.570312 -12.507812 7.988281 -12.234375 8 -12.046875 C 7.75 -11.648438 6.835938 -11.269531 5.265625 -10.90625 C 3.691406 -10.550781 2.820312 -9.1875 2.65625 -6.8125 L 2.6875 -6.359375 C 2.707031 -5.953125 2.867188 -5.554688 3.171875 -5.171875 C 3.484375 -4.796875 3.992188 -4.628906 4.703125 -4.671875 L 4.875 -4.6875 C 5.757812 -4.757812 7.4375 -5.59375 9.90625 -7.1875 L 10.0625 -6.90625 L 10.078125 -6.609375 C 7.984375 -4.535156 6.078125 -3.445312 4.359375 -3.34375 C 1.460938 -3.59375 -0.046875 -4.738281 -0.171875 -6.78125 C 0.191406 -8.90625 0.941406 -10.445312 2.078125 -11.40625 C 3.171875 -12.257812 3.988281 -12.707031 4.53125 -12.75 Z M 4.53125 -12.75 "/></g></g></g><g fill="#ffde59" fill-opacity="1"><g transform="translate(222.988817, 115.917108)"><g><path d="M 2.78125 -20.5625 C 4.320312 -21.132812 5.125 -20.898438 5.1875 -19.859375 L 5.203125 -19.65625 C 4.929688 -16.8125 4.429688 -13.535156 3.703125 -9.828125 L 3.796875 -9.828125 C 5.503906 -12.117188 7.078125 -13.234375 8.515625 -13.171875 C 9.953125 -13.109375 10.914062 -12.179688 11.40625 -10.390625 C 11.644531 -9.785156 11.804688 -9.300781 11.890625 -8.9375 C 11.898438 -8.863281 11.875 -8.828125 11.8125 -8.828125 L 11.96875 -7.65625 C 12 -7.195312 11.960938 -5.671875 11.859375 -3.078125 L 11.953125 -3.078125 C 12.015625 -2.460938 12.625 -2.429688 13.78125 -2.984375 C 14.9375 -3.535156 15.066406 -3.304688 14.171875 -2.296875 C 13.273438 -1.285156 12.421875 -0.753906 11.609375 -0.703125 C 10.804688 -0.648438 10.066406 -1 9.390625 -1.75 C 8.597656 -2.925781 8.171875 -4.070312 8.109375 -5.1875 C 8.066406 -5.820312 8.144531 -7.75 8.34375 -10.96875 L 8.328125 -11.171875 C 7.367188 -10.773438 6.375 -10.144531 5.34375 -9.28125 C 4.320312 -8.414062 3.503906 -7.03125 2.890625 -5.125 C 2.273438 -3.226562 1.773438 -2.109375 1.390625 -1.765625 L 1 -1.734375 C -0.257812 -1.492188 -0.71875 -2.578125 -0.375 -4.984375 C 0.394531 -9.054688 1.050781 -12.503906 1.59375 -15.328125 C 2.144531 -18.160156 2.539062 -19.90625 2.78125 -20.5625 Z M 2.78125 -20.5625 "/></g></g></g><g fill="#ffde59" fill-opacity="1"><g transform="translate(237.62923, 115.027749)"><g><path d="M 6.421875 -12.6875 C 7.179688 -12.96875 7.585938 -13.066406 7.640625 -12.984375 C 7.691406 -12.898438 7.722656 -12.734375 7.734375 -12.484375 C 7.753906 -12.234375 7.148438 -11.898438 5.921875 -11.484375 C 6.546875 -10.285156 6.867188 -9.503906 6.890625 -9.140625 C 6.910156 -8.785156 6.921875 -8.566406 6.921875 -8.484375 C 6.929688 -8.398438 6.804688 -7.8125 6.546875 -6.71875 C 6.296875 -5.632812 5.84375 -4.835938 5.1875 -4.328125 C 4.539062 -3.828125 3.953125 -3.503906 3.421875 -3.359375 C 2.890625 -3.210938 2.550781 -3.132812 2.40625 -3.125 C 2.257812 -3.113281 1.96875 -3.09375 1.53125 -3.0625 C 1.101562 -3.039062 0.710938 -3.253906 0.359375 -3.703125 C 0.015625 -4.148438 -0.210938 -4.710938 -0.328125 -5.390625 C -0.441406 -6.066406 -0.40625 -7.019531 -0.21875 -8.25 C -0.03125 -9.488281 0.34375 -10.425781 0.90625 -11.0625 C 1.476562 -11.707031 1.773438 -12.03125 1.796875 -12.03125 C 1.828125 -12.03125 2.050781 -12.082031 2.46875 -12.1875 C 2.894531 -12.289062 3.472656 -12.332031 4.203125 -12.3125 C 4.929688 -12.289062 5.671875 -12.414062 6.421875 -12.6875 Z M 2.15625 -6.5625 C 2.207031 -5.789062 2.238281 -5.304688 2.25 -5.109375 C 2.257812 -4.910156 2.410156 -4.765625 2.703125 -4.671875 C 2.992188 -4.585938 3.320312 -4.679688 3.6875 -4.953125 C 4.050781 -5.234375 4.335938 -5.6875 4.546875 -6.3125 C 4.765625 -6.945312 4.859375 -7.5 4.828125 -7.96875 C 4.804688 -8.445312 4.789062 -8.707031 4.78125 -8.75 C 4.78125 -8.789062 4.742188 -9.132812 4.671875 -9.78125 C 4.597656 -10.425781 4.398438 -10.828125 4.078125 -10.984375 L 3.796875 -10.96875 C 3.222656 -10.9375 2.847656 -10.679688 2.671875 -10.203125 C 2.492188 -9.734375 2.351562 -9.203125 2.25 -8.609375 C 2.144531 -8.015625 2.113281 -7.332031 2.15625 -6.5625 Z M 2.15625 -6.5625 "/></g></g></g><g fill="#ffde59" fill-opacity="1"><g transform="translate(245.777395, 114.532773)"><g><path d="M 6.421875 -12.6875 C 7.179688 -12.96875 7.585938 -13.066406 7.640625 -12.984375 C 7.691406 -12.898438 7.722656 -12.734375 7.734375 -12.484375 C 7.753906 -12.234375 7.148438 -11.898438 5.921875 -11.484375 C 6.546875 -10.285156 6.867188 -9.503906 6.890625 -9.140625 C 6.910156 -8.785156 6.921875 -8.566406 6.921875 -8.484375 C 6.929688 -8.398438 6.804688 -7.8125 6.546875 -6.71875 C 6.296875 -5.632812 5.84375 -4.835938 5.1875 -4.328125 C 4.539062 -3.828125 3.953125 -3.503906 3.421875 -3.359375 C 2.890625 -3.210938 2.550781 -3.132812 2.40625 -3.125 C 2.257812 -3.113281 1.96875 -3.09375 1.53125 -3.0625 C 1.101562 -3.039062 0.710938 -3.253906 0.359375 -3.703125 C 0.015625 -4.148438 -0.210938 -4.710938 -0.328125 -5.390625 C -0.441406 -6.066406 -0.40625 -7.019531 -0.21875 -8.25 C -0.03125 -9.488281 0.34375 -10.425781 0.90625 -11.0625 C 1.476562 -11.707031 1.773438 -12.03125 1.796875 -12.03125 C 1.828125 -12.03125 2.050781 -12.082031 2.46875 -12.1875 C 2.894531 -12.289062 3.472656 -12.332031 4.203125 -12.3125 C 4.929688 -12.289062 5.671875 -12.414062 6.421875 -12.6875 Z M 2.15625 -6.5625 C 2.207031 -5.789062 2.238281 -5.304688 2.25 -5.109375 C 2.257812 -4.910156 2.410156 -4.765625 2.703125 -4.671875 C 2.992188 -4.585938 3.320312 -4.679688 3.6875 -4.953125 C 4.050781 -5.234375 4.335938 -5.6875 4.546875 -6.3125 C 4.765625 -6.945312 4.859375 -7.5 4.828125 -7.96875 C 4.804688 -8.445312 4.789062 -8.707031 4.78125 -8.75 C 4.78125 -8.789062 4.742188 -9.132812 4.671875 -9.78125 C 4.597656 -10.425781 4.398438 -10.828125 4.078125 -10.984375 L 3.796875 -10.96875 C 3.222656 -10.9375 2.847656 -10.679688 2.671875 -10.203125 C 2.492188 -9.734375 2.351562 -9.203125 2.25 -8.609375 C 2.144531 -8.015625 2.113281 -7.332031 2.15625 -6.5625 Z M 2.15625 -6.5625 "/></g></g></g><g fill="#ffde59" fill-opacity="1"><g transform="translate(253.925559, 114.037798)"><g><path d="M 3.5 -20.75 C 5.375 -20.28125 6.320312 -19.859375 6.34375 -19.484375 C 6.539062 -19.492188 6.773438 -18.945312 7.046875 -17.84375 C 7.046875 -17.726562 6.921875 -17.066406 6.671875 -15.859375 C 6.421875 -14.648438 5.898438 -12.695312 5.109375 -10 C 4.316406 -7.3125 3.492188 -4.675781 2.640625 -2.09375 C 2.296875 -1.1875 2.140625 -0.148438 2.171875 1.015625 C 2.359375 1.503906 2.742188 1.734375 3.328125 1.703125 L 3.65625 1.671875 C 4 1.648438 4.375 1.546875 4.78125 1.359375 L 4.796875 1.4375 C 4.867188 2.070312 4.53125 2.445312 3.78125 2.5625 C 3.03125 2.675781 2.296875 2.507812 1.578125 2.0625 C 0.859375 1.613281 0.46875 0.914062 0.40625 -0.03125 C 0.125 -1.019531 0.015625 -2.082031 0.078125 -3.21875 C 0.140625 -4.351562 1.140625 -8.90625 3.078125 -16.875 C 3.296875 -17.625 3.460938 -18.523438 3.578125 -19.578125 C 3.453125 -19.828125 3.375 -20.1875 3.34375 -20.65625 Z M 3.5 -20.75 "/></g></g></g><path stroke-linecap="butt" transform="matrix(0.75, 0, 0, 0.75, 101.074858, 32.940009)" fill="none" stroke-linejoin="miter" d="M 5.457481 14.975822 C 5.822064 13.439364 6.243939 12.074781 6.728314 10.887281 L 6.728314 10.731031 C 6.811648 10.475822 6.655398 10.371656 6.254356 10.413322 C 3.790814 10.496656 2.650189 9.918531 2.827273 8.668531 L 3.144981 8.501864 C 5.056439 7.944572 8.014773 7.88728 12.014773 8.335197 C 17.228315 8.928947 20.40019 8.970614 21.530398 8.449781 L 21.999148 8.449781 C 22.155398 8.449781 22.311648 8.611239 22.473107 8.923739 L 22.473107 9.074781 C 21.853315 11.158114 19.874148 12.194572 16.535606 12.194572 C 16.11894 12.194572 14.457481 11.970614 11.55644 11.522697 C 10.874148 12.861239 10.259565 14.324781 9.707481 15.902906 C 13.790815 16.293531 16.759565 16.074781 18.613732 15.241447 C 18.561648 16.454989 17.99394 17.324781 16.905398 17.840406 C 15.816856 18.356031 14.827273 18.632073 13.936648 18.668531 C 13.046023 18.704989 12.046023 18.621656 10.936648 18.434156 C 9.827273 18.241448 9.118939 18.095614 8.816856 17.991448 C 8.108523 20.949781 7.493939 24.444573 6.967898 28.475823 L 6.483523 28.606031 C 5.150189 27.163323 4.566856 24.074781 4.738731 19.345614 C 4.858523 17.965406 5.098106 16.512281 5.457481 14.975822 Z M 24.40019 15.600822 C 25.644982 15.460197 26.21269 16.356031 26.108524 18.288323 C 25.691857 20.189364 25.483523 21.350823 25.483523 21.777906 C 25.483523 22.277906 25.634565 22.543531 25.93144 22.564364 C 26.467899 22.564364 27.572065 22.184156 29.24394 21.418531 L 29.322065 21.600823 L 29.322065 22.043531 C 29.18144 22.486239 28.561649 22.934156 27.457482 23.382073 C 27.092899 23.678948 26.613732 23.829989 26.019982 23.829989 C 25.061648 23.736239 24.436648 23.293531 24.139773 22.501864 C 23.848107 21.715406 23.702273 21.142489 23.702273 20.783114 L 23.613732 20.783114 C 22.21269 23.288323 20.988732 24.543531 19.941857 24.543531 C 19.697065 24.543531 19.551232 24.543531 19.499148 24.543531 C 18.853315 24.543531 18.285607 23.965406 17.801231 22.809156 C 17.316856 21.652906 17.941856 20.111239 19.665815 18.184156 C 21.639773 16.757073 22.780398 16.043531 23.077273 16.043531 C 23.90019 15.746656 24.342898 15.600822 24.40019 15.600822 Z M 19.139773 22.746656 L 19.394982 22.923739 C 20.796023 22.210198 21.790815 21.345614 22.379357 20.324781 C 22.96269 19.303948 23.254357 18.710198 23.254357 18.543531 L 23.254357 18.288323 L 23.155398 18.288323 C 21.572065 18.772698 20.509565 19.600823 19.96269 20.772698 C 19.415815 21.944573 19.139773 22.600823 19.139773 22.746656 Z M 32.733524 14.548739 C 32.90019 14.465406 33.129357 14.512281 33.421024 14.689364 C 33.717899 14.861239 33.863732 15.022697 33.863732 15.163322 L 33.863732 15.559156 C 33.863732 16.569573 33.405399 17.074781 32.488732 17.074781 L 32.233524 17.074781 C 32.103315 17.074781 31.978315 16.949781 31.848107 16.694573 L 31.848107 15.944572 C 32.27519 15.095614 32.572065 14.626864 32.733524 14.548739 Z M 31.478315 17.574781 C 32.394982 17.767489 32.858524 18.189364 32.858524 18.835198 L 32.858524 19.204989 C 31.592899 21.361239 30.957482 22.835198 30.957482 23.621656 C 31.155399 23.876864 31.342899 24.007073 31.530399 24.007073 C 31.717899 24.007073 32.030399 23.897698 32.473107 23.689364 C 32.915815 23.475823 33.86894 22.678948 35.327274 21.293531 C 35.499149 21.319573 35.582482 21.408114 35.582482 21.559156 C 35.582482 21.798739 35.082482 22.335198 34.077274 23.178948 C 33.077274 24.017489 32.21269 24.465406 31.478315 24.51749 C 30.519982 24.51749 29.889774 23.803948 29.582482 22.376864 L 29.582482 22.106031 C 29.582482 21.538323 30.08769 20.194573 31.098107 18.069573 C 31.139774 17.736239 31.269982 17.574781 31.478315 17.574781 Z M 37.160607 14.564364 C 38.332482 15.111239 38.915816 15.814364 38.915816 16.678948 L 38.915816 17.725823 C 40.087691 16.475823 41.603316 15.850822 43.467899 15.850822 C 44.707483 15.850822 45.796024 16.361239 46.738733 17.382073 C 46.889774 17.783114 46.738733 17.975823 46.280399 17.965406 C 46.223108 17.965406 45.988733 17.923739 45.582483 17.840406 C 42.681441 17.069573 40.478316 18.512281 38.967899 22.173739 C 38.155399 24.95499 37.587691 26.949781 37.275191 28.147698 L 37.030399 28.262281 L 36.801232 28.262281 C 34.952274 27.819573 34.249149 26.371656 34.702274 23.918531 C 35.796024 21.507073 36.572066 19.366448 37.030399 17.496656 C 37.228316 17.277906 37.384566 16.772698 37.504357 15.981031 C 37.077274 15.470614 36.488732 15.293531 35.738732 15.444572 C 34.988732 15.600822 34.644982 15.507072 34.712691 15.178947 C 34.780399 14.845614 35.129357 14.678947 35.759566 14.678947 C 36.301232 14.606031 36.769982 14.564364 37.160607 14.564364 Z M 52.009566 8.590406 L 52.733525 8.590406 C 53.921025 9.194572 54.691858 9.866447 55.040816 10.606031 L 55.306441 11.038322 L 55.306441 11.621656 L 55.181441 13.345614 C 57.863733 13.345614 59.728317 13.106031 60.769983 12.632072 L 61.1554 12.475822 C 61.74915 12.204989 61.801233 12.548739 61.306442 13.501864 C 60.816858 14.460197 59.738733 15.126864 58.082483 15.501864 C 56.426233 15.882072 55.165816 15.975822 54.301233 15.788322 C 52.296025 19.736239 51.296025 22.475823 51.296025 23.991448 L 51.296025 25.26749 C 51.296025 25.413323 51.415816 25.668531 51.650191 26.043531 C 51.889775 26.418531 52.296025 26.606031 52.868941 26.606031 C 53.441858 26.606031 54.056441 26.465406 54.712691 26.178948 C 55.37415 25.89249 56.004358 25.496656 56.608525 24.98624 L 56.900191 25.418531 L 56.900191 25.715406 C 56.900191 26.241448 55.74915 26.866448 53.447066 27.585198 L 52.733525 27.585198 C 50.941858 27.585198 49.598108 26.340406 48.697066 23.850823 L 48.400191 22.553948 L 48.400191 20.975823 C 48.400191 19.548739 48.884566 17.626864 49.853316 15.215406 L 49.853316 15.074781 C 49.447066 14.965406 48.681441 14.678947 47.561649 14.210197 C 46.197066 13.496656 45.327274 12.824781 44.962691 12.194572 L 45.254358 12.043531 C 46.759566 12.434156 48.150191 12.725822 49.421024 12.908114 L 50.285608 12.908114 L 50.566858 13.048739 C 51.238733 11.616447 51.671025 10.465406 51.868941 9.595614 L 51.868941 9.460197 L 51.712691 8.746656 Z M 63.81165 15.121656 C 64.56165 14.897697 64.957483 14.824781 64.99915 14.908114 C 65.040817 14.996656 65.06165 15.158114 65.06165 15.402906 C 65.06165 15.642489 64.457483 15.934156 63.254358 16.272698 C 63.785608 17.454989 64.056442 18.220614 64.056442 18.574781 C 64.056442 18.923739 64.056442 19.142489 64.056442 19.220614 C 64.056442 19.303948 63.900192 19.861239 63.582483 20.892489 C 63.269983 21.923739 62.785608 22.663323 62.129358 23.116448 C 61.478317 23.564364 60.889775 23.845614 60.368942 23.954989 C 59.8429 24.064364 59.509567 24.121656 59.368942 24.121656 C 59.223108 24.121656 58.941858 24.121656 58.525192 24.121656 C 58.108525 24.121656 57.743941 23.892489 57.431441 23.439364 C 57.113733 22.986239 56.926233 22.428948 56.858525 21.772698 C 56.790816 21.111239 56.879358 20.194573 57.129358 19.017489 C 57.379358 17.840406 57.801233 16.960198 58.384567 16.376864 C 58.973108 15.788322 59.275192 15.496656 59.301233 15.496656 C 59.327275 15.496656 59.546025 15.460197 59.957483 15.382072 C 60.368942 15.303947 60.931442 15.298739 61.634567 15.361239 C 62.337692 15.428947 63.066858 15.345614 63.81165 15.121656 Z M 59.316858 20.783114 C 59.316858 21.533114 59.316858 22.001864 59.316858 22.189364 C 59.316858 22.382073 59.457483 22.527906 59.738733 22.632073 C 60.014775 22.731031 60.3429 22.663323 60.7179 22.418531 C 61.0929 22.178948 61.394983 21.762281 61.634567 21.163323 C 61.87415 20.569573 61.988733 20.043531 61.988733 19.585198 C 61.988733 19.126864 61.988733 18.876864 61.988733 18.840406 C 61.988733 18.803948 61.978317 18.465406 61.947067 17.835198 C 61.915817 17.199781 61.754358 16.798739 61.457483 16.632073 L 61.176233 16.632073 C 60.613733 16.632073 60.233525 16.856031 60.0304 17.303948 C 59.827275 17.757073 59.6554 18.262281 59.519983 18.819573 C 59.384567 19.382073 59.316858 20.038323 59.316858 20.783114 Z M 85.467901 10.194572 C 85.577276 10.309156 85.629359 10.387281 85.629359 10.434156 C 85.629359 10.481031 85.629359 10.574781 85.629359 10.725822 C 85.629359 10.871656 85.098109 11.522697 84.040818 12.673739 C 82.978318 13.824781 82.306443 14.574781 82.030401 14.928947 C 81.754359 15.283114 81.452276 15.829989 81.124151 16.564364 C 80.790817 17.303948 80.030401 18.944573 78.837692 21.475823 C 77.639776 24.012281 76.790817 25.413323 76.280401 25.678948 C 75.769984 25.949781 75.473109 26.090406 75.389776 26.106031 C 75.306442 26.126865 75.259567 26.168531 75.259567 26.23624 C 75.259567 26.303948 74.806442 26.335198 73.900192 26.335198 C 72.988734 26.335198 72.1554 24.64249 71.389775 21.257073 C 70.275192 23.001864 69.608525 24.064364 69.384567 24.439365 C 69.1554 24.814365 68.879359 25.121656 68.540817 25.36124 C 68.207484 25.606031 67.858525 25.783115 67.504359 25.902906 C 67.144984 26.022698 66.712692 26.01749 66.202275 25.887281 C 65.697067 25.751865 65.348108 25.413323 65.171025 24.86124 C 64.993942 24.309156 64.863733 23.814364 64.775192 23.376864 C 64.691858 22.939364 64.691858 22.402906 64.775192 21.762281 C 64.863733 21.126864 65.129358 20.126864 65.572067 18.757073 C 66.019983 17.392489 66.176234 16.704989 66.051234 16.704989 C 65.926233 16.704989 65.702275 16.658114 65.384567 16.564364 C 65.06165 16.470614 64.99915 16.288323 65.18665 16.017489 C 65.37415 15.746656 65.546025 15.527906 65.707483 15.361239 C 65.868942 15.194572 66.301234 15.095614 67.004359 15.059156 C 67.712692 15.017489 68.103317 15.001864 68.18665 15.001864 C 68.264775 15.001864 68.348109 15.007072 68.431442 15.022697 C 68.519984 15.043531 68.56165 15.085197 68.56165 15.152906 C 68.56165 15.220614 68.56165 15.314364 68.56165 15.434156 C 68.56165 15.553947 68.478317 15.694572 68.31165 15.866447 C 68.144984 16.038322 67.697067 17.454989 66.962692 20.126864 C 66.228317 22.798739 65.879358 24.220615 65.926233 24.387281 C 65.9679 24.559156 66.051234 24.64249 66.176234 24.64249 C 66.306442 24.64249 66.556442 24.585198 66.931442 24.465406 C 67.306442 24.345615 67.93665 23.569573 68.822067 22.142489 C 69.707484 20.710198 70.358525 19.621656 70.769984 18.876864 C 71.181442 18.137281 71.488734 17.564364 71.681442 17.173739 C 71.879359 16.777906 72.301234 16.579989 72.947067 16.579989 C 73.598109 16.579989 73.926234 16.887281 73.926234 17.496656 C 73.926234 18.106031 73.879359 18.949781 73.796025 20.017489 C 73.712692 21.090406 73.671025 21.736239 73.671025 21.965406 C 73.671025 22.199781 73.671025 22.475823 73.671025 22.803948 C 73.671025 23.126864 73.733525 23.392489 73.858525 23.590406 C 73.988734 23.793531 74.176234 23.892489 74.421026 23.892489 C 74.665817 23.892489 74.988734 23.303948 75.384567 22.126864 C 75.775192 20.949781 76.191859 19.944573 76.624151 19.100823 C 77.056442 18.262281 77.441859 17.491448 77.785609 16.788323 C 78.124151 16.090406 78.629359 15.356031 79.296026 14.600822 C 79.962692 13.840406 80.775192 13.106031 81.738734 12.402906 C 82.702276 11.694572 83.535609 11.126864 84.243943 10.689364 C 84.947068 10.251864 85.353318 10.085197 85.467901 10.194572 Z M 84.566859 12.678947 L 84.665818 12.678947 C 85.863734 12.678947 86.462693 13.184156 86.462693 14.184156 L 86.415818 14.960197 C 86.233526 15.845614 86.051234 16.772698 85.863734 17.736239 L 85.967901 17.736239 C 87.749151 15.621656 89.332484 14.637281 90.712693 14.783114 C 92.092901 14.928947 92.967901 15.882072 93.342901 17.647698 C 93.530401 18.236239 93.655401 18.704989 93.712693 19.064364 C 93.712693 19.132073 93.681443 19.163323 93.624151 19.163323 L 93.712693 20.298739 C 93.712693 20.751864 93.587693 22.225823 93.342901 24.731031 L 93.431443 24.731031 C 93.457485 25.324781 94.046026 25.39249 95.197068 24.928948 C 96.34811 24.465406 96.462693 24.694573 95.540818 25.616448 C 94.618943 26.538323 93.764776 27.001865 92.97311 27.001865 C 92.186651 27.001865 91.488735 26.621656 90.884568 25.866448 C 90.186651 24.684156 89.842901 23.553948 89.842901 22.465406 C 89.842901 21.850823 90.025193 19.996656 90.400193 16.897698 L 90.400193 16.704989 C 89.457484 17.027906 88.467901 17.579989 87.426234 18.356031 C 86.384568 19.132073 85.509568 20.418531 84.801234 22.215406 C 84.092901 24.012281 83.540818 25.069573 83.150193 25.382073 L 82.769984 25.382073 C 81.546026 25.543531 81.171026 24.470615 81.634567 22.158114 C 82.624151 18.288323 83.322068 15.767489 83.733526 14.600822 C 84.144984 13.428947 84.421026 12.793531 84.566859 12.678947 Z M 84.566859 12.678947 " stroke="#806600" stroke-width="1.9572" stroke-opacity="1" stroke-miterlimit="4"/><g fill="#ffde59" fill-opacity="1"><g transform="translate(104.438139, 53.190008)"><g><path d="M 0.734375 -9.015625 C 1.003906 -10.171875 1.320312 -11.191406 1.6875 -12.078125 L 1.6875 -12.203125 C 1.75 -12.390625 1.628906 -12.46875 1.328125 -12.4375 C -0.515625 -12.375 -1.367188 -12.8125 -1.234375 -13.75 L -1 -13.875 C 0.425781 -14.289062 2.640625 -14.332031 5.640625 -14 C 9.554688 -13.550781 11.9375 -13.519531 12.78125 -13.90625 L 13.140625 -13.90625 C 13.253906 -13.90625 13.367188 -13.785156 13.484375 -13.546875 L 13.484375 -13.4375 C 13.023438 -11.875 11.539062 -11.09375 9.03125 -11.09375 C 8.71875 -11.09375 7.472656 -11.265625 5.296875 -11.609375 C 4.785156 -10.597656 4.328125 -9.5 3.921875 -8.3125 C 6.984375 -8.019531 9.207031 -8.1875 10.59375 -8.8125 C 10.550781 -7.90625 10.125 -7.253906 9.3125 -6.859375 C 8.5 -6.472656 7.753906 -6.265625 7.078125 -6.234375 C 6.410156 -6.210938 5.660156 -6.273438 4.828125 -6.421875 C 4.003906 -6.566406 3.476562 -6.675781 3.25 -6.75 C 2.71875 -4.53125 2.253906 -1.910156 1.859375 1.109375 L 1.5 1.203125 C 0.5 0.117188 0.0625 -2.191406 0.1875 -5.734375 C 0.28125 -6.765625 0.460938 -7.859375 0.734375 -9.015625 Z M 0.734375 -9.015625 "/></g></g></g><g fill="#ffde59" fill-opacity="1"><g transform="translate(114.542139, 53.190008)"><g><path d="M 4.828125 -8.546875 C 5.765625 -8.648438 6.191406 -7.976562 6.109375 -6.53125 C 5.796875 -5.101562 5.640625 -4.234375 5.640625 -3.921875 C 5.640625 -3.546875 5.753906 -3.347656 5.984375 -3.328125 C 6.378906 -3.328125 7.207031 -3.613281 8.46875 -4.1875 L 8.515625 -4.046875 L 8.515625 -3.71875 C 8.421875 -3.382812 7.957031 -3.050781 7.125 -2.71875 C 6.851562 -2.488281 6.492188 -2.375 6.046875 -2.375 C 5.328125 -2.445312 4.859375 -2.78125 4.640625 -3.375 C 4.421875 -3.96875 4.3125 -4.394531 4.3125 -4.65625 L 4.234375 -4.65625 C 3.191406 -2.78125 2.273438 -1.84375 1.484375 -1.84375 C 1.304688 -1.84375 1.195312 -1.84375 1.15625 -1.84375 C 0.675781 -1.84375 0.253906 -2.273438 -0.109375 -3.140625 C -0.472656 -4.003906 -0.0078125 -5.160156 1.28125 -6.609375 C 2.757812 -7.679688 3.613281 -8.21875 3.84375 -8.21875 C 4.457031 -8.4375 4.785156 -8.546875 4.828125 -8.546875 Z M 0.890625 -3.1875 L 1.078125 -3.0625 C 2.128906 -3.59375 2.875 -4.238281 3.3125 -5 C 3.75 -5.769531 3.96875 -6.21875 3.96875 -6.34375 L 3.96875 -6.53125 L 3.890625 -6.53125 C 2.710938 -6.164062 1.914062 -5.546875 1.5 -4.671875 C 1.09375 -3.796875 0.890625 -3.300781 0.890625 -3.1875 Z M 0.890625 -3.1875 "/></g></g></g><g fill="#ffde59" fill-opacity="1"><g transform="translate(122.993978, 53.190008)"><g><path d="M 2.625 -9.328125 C 2.75 -9.390625 2.921875 -9.351562 3.140625 -9.21875 C 3.367188 -9.09375 3.484375 -8.976562 3.484375 -8.875 L 3.484375 -8.578125 C 3.484375 -7.816406 3.140625 -7.4375 2.453125 -7.4375 L 2.25 -7.4375 C 2.15625 -7.4375 2.0625 -7.535156 1.96875 -7.734375 L 1.96875 -8.296875 C 2.289062 -8.929688 2.507812 -9.273438 2.625 -9.328125 Z M 1.6875 -7.0625 C 2.375 -6.914062 2.71875 -6.601562 2.71875 -6.125 L 2.71875 -5.84375 C 1.769531 -4.226562 1.296875 -3.125 1.296875 -2.53125 C 1.441406 -2.34375 1.582031 -2.25 1.71875 -2.25 C 1.863281 -2.25 2.101562 -2.328125 2.4375 -2.484375 C 2.769531 -2.640625 3.484375 -3.238281 4.578125 -4.28125 C 4.703125 -4.257812 4.765625 -4.191406 4.765625 -4.078125 C 4.765625 -3.898438 4.390625 -3.492188 3.640625 -2.859375 C 2.890625 -2.234375 2.238281 -1.898438 1.6875 -1.859375 C 0.96875 -1.859375 0.492188 -2.394531 0.265625 -3.46875 L 0.265625 -3.671875 C 0.265625 -4.097656 0.644531 -5.109375 1.40625 -6.703125 C 1.4375 -6.941406 1.53125 -7.0625 1.6875 -7.0625 Z M 1.6875 -7.0625 "/></g></g></g><g fill="#ffde59" fill-opacity="1"><g transform="translate(127.415677, 53.190008)"><g><path d="M 1.53125 -9.328125 C 2.40625 -8.921875 2.84375 -8.390625 2.84375 -7.734375 L 2.84375 -6.953125 C 3.726562 -7.890625 4.863281 -8.359375 6.25 -8.359375 C 7.1875 -8.359375 8.007812 -7.976562 8.71875 -7.21875 C 8.832031 -6.914062 8.71875 -6.765625 8.375 -6.765625 C 8.320312 -6.765625 8.144531 -6.800781 7.84375 -6.875 C 5.664062 -7.445312 4.015625 -6.363281 2.890625 -3.625 C 2.273438 -1.53125 1.847656 -0.0351562 1.609375 0.859375 L 1.4375 0.953125 L 1.265625 0.953125 C -0.128906 0.617188 -0.65625 -0.46875 -0.3125 -2.3125 C 0.507812 -4.125 1.09375 -5.726562 1.4375 -7.125 C 1.582031 -7.289062 1.695312 -7.671875 1.78125 -8.265625 C 1.46875 -8.640625 1.03125 -8.769531 0.46875 -8.65625 C -0.09375 -8.539062 -0.347656 -8.609375 -0.296875 -8.859375 C -0.253906 -9.109375 0.00390625 -9.234375 0.484375 -9.234375 C 0.890625 -9.296875 1.238281 -9.328125 1.53125 -9.328125 Z M 1.53125 -9.328125 "/></g></g></g><g fill="#ffde59" fill-opacity="1"><g transform="translate(136.373666, 53.190008)"><g><path d="M 3.703125 -13.796875 L 4.25 -13.796875 C 5.144531 -13.347656 5.722656 -12.847656 5.984375 -12.296875 L 6.1875 -11.96875 L 6.1875 -11.53125 L 6.078125 -10.234375 C 8.097656 -10.234375 9.5 -10.414062 10.28125 -10.78125 L 10.5625 -10.890625 C 11.007812 -11.085938 11.046875 -10.828125 10.671875 -10.109375 C 10.304688 -9.398438 9.503906 -8.90625 8.265625 -8.625 C 7.023438 -8.34375 6.078125 -8.269531 5.421875 -8.40625 C 3.921875 -5.445312 3.171875 -3.394531 3.171875 -2.25 L 3.171875 -1.296875 C 3.171875 -1.191406 3.257812 -1 3.4375 -0.71875 C 3.613281 -0.4375 3.914062 -0.296875 4.34375 -0.296875 C 4.78125 -0.296875 5.242188 -0.398438 5.734375 -0.609375 C 6.222656 -0.828125 6.695312 -1.128906 7.15625 -1.515625 L 7.375 -1.1875 L 7.375 -0.96875 C 7.375 -0.570312 6.507812 -0.101562 4.78125 0.4375 L 4.25 0.4375 C 2.90625 0.4375 1.894531 -0.492188 1.21875 -2.359375 L 1 -3.328125 L 1 -4.515625 C 1 -5.585938 1.363281 -7.023438 2.09375 -8.828125 L 2.09375 -8.9375 C 1.789062 -9.019531 1.21875 -9.238281 0.375 -9.59375 C -0.65625 -10.125 -1.304688 -10.625 -1.578125 -11.09375 L -1.359375 -11.21875 C -0.234375 -10.925781 0.804688 -10.707031 1.765625 -10.5625 L 2.421875 -10.5625 L 2.625 -10.453125 C 3.125 -11.535156 3.445312 -12.398438 3.59375 -13.046875 L 3.59375 -13.15625 L 3.484375 -13.6875 Z M 3.703125 -13.796875 "/></g></g></g><g fill="#ffde59" fill-opacity="1"><g transform="translate(143.717694, 53.190008)"><g><path d="M 5.21875 -8.90625 C 5.78125 -9.070312 6.078125 -9.125 6.109375 -9.0625 C 6.140625 -9 6.15625 -8.875 6.15625 -8.6875 C 6.15625 -8.507812 5.703125 -8.296875 4.796875 -8.046875 C 5.191406 -7.160156 5.390625 -6.582031 5.390625 -6.3125 C 5.390625 -6.050781 5.390625 -5.890625 5.390625 -5.828125 C 5.390625 -5.765625 5.269531 -5.347656 5.03125 -4.578125 C 4.800781 -3.804688 4.441406 -3.25 3.953125 -2.90625 C 3.460938 -2.570312 3.019531 -2.363281 2.625 -2.28125 C 2.238281 -2.195312 1.988281 -2.15625 1.875 -2.15625 C 1.769531 -2.15625 1.5625 -2.15625 1.25 -2.15625 C 0.9375 -2.15625 0.660156 -2.328125 0.421875 -2.671875 C 0.191406 -3.015625 0.0507812 -3.429688 0 -3.921875 C -0.0507812 -4.410156 0.015625 -5.097656 0.203125 -5.984375 C 0.390625 -6.867188 0.703125 -7.53125 1.140625 -7.96875 C 1.585938 -8.40625 1.816406 -8.625 1.828125 -8.625 C 1.847656 -8.625 2.015625 -8.648438 2.328125 -8.703125 C 2.640625 -8.765625 3.054688 -8.769531 3.578125 -8.71875 C 4.109375 -8.675781 4.65625 -8.738281 5.21875 -8.90625 Z M 1.84375 -4.65625 C 1.84375 -4.101562 1.84375 -3.753906 1.84375 -3.609375 C 1.84375 -3.460938 1.945312 -3.347656 2.15625 -3.265625 C 2.363281 -3.191406 2.609375 -3.242188 2.890625 -3.421875 C 3.171875 -3.609375 3.398438 -3.925781 3.578125 -4.375 C 3.753906 -4.820312 3.84375 -5.21875 3.84375 -5.5625 C 3.84375 -5.90625 3.84375 -6.085938 3.84375 -6.109375 C 3.84375 -6.140625 3.832031 -6.390625 3.8125 -6.859375 C 3.789062 -7.335938 3.671875 -7.644531 3.453125 -7.78125 L 3.234375 -7.78125 C 2.816406 -7.78125 2.53125 -7.609375 2.375 -7.265625 C 2.226562 -6.929688 2.101562 -6.550781 2 -6.125 C 1.894531 -5.707031 1.84375 -5.21875 1.84375 -4.65625 Z M 1.84375 -4.65625 "/></g></g></g><g fill="#ffde59" fill-opacity="1"><g transform="translate(149.638752, 53.190008)"><g><path d="M 15.53125 -12.59375 C 15.613281 -12.507812 15.65625 -12.453125 15.65625 -12.421875 C 15.65625 -12.390625 15.65625 -12.316406 15.65625 -12.203125 C 15.65625 -12.085938 15.253906 -11.597656 14.453125 -10.734375 C 13.660156 -9.878906 13.160156 -9.316406 12.953125 -9.046875 C 12.742188 -8.785156 12.515625 -8.375 12.265625 -7.8125 C 12.023438 -7.257812 11.457031 -6.035156 10.5625 -4.140625 C 9.664062 -2.242188 9.023438 -1.191406 8.640625 -0.984375 C 8.265625 -0.785156 8.039062 -0.679688 7.96875 -0.671875 C 7.90625 -0.660156 7.875 -0.628906 7.875 -0.578125 C 7.875 -0.523438 7.535156 -0.5 6.859375 -0.5 C 6.179688 -0.5 5.554688 -1.769531 4.984375 -4.3125 C 4.140625 -3 3.632812 -2.203125 3.46875 -1.921875 C 3.300781 -1.640625 3.09375 -1.40625 2.84375 -1.21875 C 2.59375 -1.039062 2.332031 -0.90625 2.0625 -0.8125 C 1.789062 -0.726562 1.460938 -0.734375 1.078125 -0.828125 C 0.703125 -0.929688 0.445312 -1.1875 0.3125 -1.59375 C 0.175781 -2.007812 0.078125 -2.378906 0.015625 -2.703125 C -0.046875 -3.035156 -0.046875 -3.441406 0.015625 -3.921875 C 0.078125 -4.398438 0.273438 -5.148438 0.609375 -6.171875 C 0.953125 -7.203125 1.070312 -7.71875 0.96875 -7.71875 C 0.875 -7.71875 0.707031 -7.75 0.46875 -7.8125 C 0.226562 -7.882812 0.175781 -8.023438 0.3125 -8.234375 C 0.457031 -8.441406 0.585938 -8.601562 0.703125 -8.71875 C 0.828125 -8.84375 1.15625 -8.921875 1.6875 -8.953125 C 2.21875 -8.984375 2.515625 -9 2.578125 -9 C 2.640625 -9 2.703125 -8.988281 2.765625 -8.96875 C 2.828125 -8.957031 2.859375 -8.925781 2.859375 -8.875 C 2.859375 -8.832031 2.859375 -8.765625 2.859375 -8.671875 C 2.859375 -8.585938 2.796875 -8.476562 2.671875 -8.34375 C 2.546875 -8.21875 2.207031 -7.15625 1.65625 -5.15625 C 1.101562 -3.15625 0.84375 -2.085938 0.875 -1.953125 C 0.90625 -1.828125 0.96875 -1.765625 1.0625 -1.765625 C 1.164062 -1.765625 1.351562 -1.804688 1.625 -1.890625 C 1.90625 -1.984375 2.378906 -2.566406 3.046875 -3.640625 C 3.710938 -4.710938 4.203125 -5.523438 4.515625 -6.078125 C 4.828125 -6.640625 5.054688 -7.066406 5.203125 -7.359375 C 5.347656 -7.660156 5.660156 -7.8125 6.140625 -7.8125 C 6.628906 -7.8125 6.875 -7.582031 6.875 -7.125 C 6.875 -6.664062 6.84375 -6.035156 6.78125 -5.234375 C 6.71875 -4.429688 6.6875 -3.941406 6.6875 -3.765625 C 6.6875 -3.597656 6.6875 -3.390625 6.6875 -3.140625 C 6.6875 -2.898438 6.734375 -2.703125 6.828125 -2.546875 C 6.921875 -2.398438 7.0625 -2.328125 7.25 -2.328125 C 7.4375 -2.328125 7.675781 -2.769531 7.96875 -3.65625 C 8.269531 -4.539062 8.582031 -5.296875 8.90625 -5.921875 C 9.226562 -6.554688 9.515625 -7.132812 9.765625 -7.65625 C 10.023438 -8.175781 10.40625 -8.722656 10.90625 -9.296875 C 11.40625 -9.867188 12.015625 -10.414062 12.734375 -10.9375 C 13.460938 -11.46875 14.085938 -11.894531 14.609375 -12.21875 C 15.140625 -12.550781 15.445312 -12.675781 15.53125 -12.59375 Z M 15.53125 -12.59375 "/></g></g></g><g fill="#ffde59" fill-opacity="1"><g transform="translate(162.359478, 53.190008)"><g><path d="M 2.140625 -10.734375 L 2.21875 -10.734375 C 3.113281 -10.734375 3.5625 -10.359375 3.5625 -9.609375 L 3.53125 -9.03125 C 3.394531 -8.363281 3.253906 -7.664062 3.109375 -6.9375 L 3.1875 -6.9375 C 4.53125 -8.53125 5.71875 -9.269531 6.75 -9.15625 C 7.78125 -9.050781 8.4375 -8.335938 8.71875 -7.015625 C 8.863281 -6.578125 8.957031 -6.222656 9 -5.953125 C 9 -5.898438 8.976562 -5.875 8.9375 -5.875 L 9 -5.03125 C 9 -4.6875 8.90625 -3.578125 8.71875 -1.703125 L 8.78125 -1.703125 C 8.800781 -1.253906 9.242188 -1.203125 10.109375 -1.546875 C 10.972656 -1.898438 11.054688 -1.726562 10.359375 -1.03125 C 9.671875 -0.34375 9.03125 0 8.4375 0 C 7.851562 0 7.332031 -0.28125 6.875 -0.84375 C 6.351562 -1.726562 6.09375 -2.582031 6.09375 -3.40625 C 6.09375 -3.863281 6.234375 -5.253906 6.515625 -7.578125 L 6.515625 -7.71875 C 5.804688 -7.476562 5.0625 -7.066406 4.28125 -6.484375 C 3.5 -5.898438 2.84375 -4.929688 2.3125 -3.578125 C 1.78125 -2.234375 1.367188 -1.445312 1.078125 -1.21875 L 0.796875 -1.21875 C -0.117188 -1.09375 -0.40625 -1.894531 -0.0625 -3.625 C 0.675781 -6.53125 1.203125 -8.421875 1.515625 -9.296875 C 1.828125 -10.171875 2.035156 -10.648438 2.140625 -10.734375 Z M 2.140625 -10.734375 "/></g></g></g><g clip-path="url(#cc31244225)"><g clip-path="url(#0280364491)"><path fill="#ffde59" d="M 176.386719 46.441406 L 266.023438 46.441406 L 266.023438 53.414062 L 176.386719 53.414062 Z M 176.386719 46.441406 " fill-opacity="1" fill-rule="nonzero"/></g></g><g clip-path="url(#7fa7c3a7e5)"><g clip-path="url(#7e90c15de4)"><path fill="#ffde59" d="M 101.28125 103.589844 L 175.664062 103.589844 L 175.664062 110.566406 L 101.28125 110.566406 Z M 101.28125 103.589844 " fill-opacity="1" fill-rule="nonzero"/></g></g></svg>